<svg xmlns="http://www.w3.org/2000/svg" viewBox="0 0 620 140" fill="none">
  <!-- Robot mascot — dark -->
  <g transform="translate(10, 5) scale(1.0)">
    <line x1="64" y1="6" x2="64" y2="20" stroke="#A5B4FC" stroke-width="2.5" stroke-linecap="round"/>
    <circle cx="64" cy="5" r="3" fill="#C7D2FE"/>
    <circle cx="64" cy="5" r="5" fill="#818CF8" opacity="0.3"/>

    <path d="M28 32 L64 28 L100 32 L96 72 L82 88 L64 94 L46 88 L32 72Z" fill="#818CF8" opacity="0.12"/>
    <path d="M28 32 L64 28 L100 32 L96 72 L82 88 L64 94 L46 88 L32 72Z" stroke="#A5B4FC" stroke-width="2.5" stroke-linejoin="round" fill="none"/>

    <path d="M38 48 L90 48 L86 60 L42 60Z" fill="#0F0D2E"/>
    <path d="M38 48 L90 48 L86 60 L42 60Z" stroke="#A5B4FC" stroke-width="2" stroke-linejoin="round" fill="none"/>

    <circle cx="52" cy="54" r="5" fill="#A5B4FC"/>
    <circle cx="52" cy="54" r="3" fill="#E0E7FF"/>
    <circle cx="52" cy="54" r="8" fill="#818CF8" opacity="0.2"/>
    <circle cx="76" cy="54" r="5" fill="#A5B4FC"/>
    <circle cx="76" cy="54" r="3" fill="#E0E7FF"/>
    <circle cx="76" cy="54" r="8" fill="#818CF8" opacity="0.2"/>

    <line x1="64" y1="60" x2="64" y2="72" stroke="#A5B4FC" stroke-width="1.5" stroke-linecap="round"/>

    <line x1="52" y1="76" x2="76" y2="76" stroke="#A5B4FC" stroke-width="2" stroke-linecap="round"/>
    <line x1="55" y1="81" x2="73" y2="81" stroke="#A5B4FC" stroke-width="1.5" stroke-linecap="round" opacity="0.5"/>

    <line x1="32" y1="50" x2="26" y2="46" stroke="#C7D2FE" stroke-width="2" stroke-linecap="round"/>
    <line x1="32" y1="56" x2="26" y2="56" stroke="#C7D2FE" stroke-width="2" stroke-linecap="round"/>
    <line x1="32" y1="62" x2="26" y2="66" stroke="#C7D2FE" stroke-width="2" stroke-linecap="round"/>
    <line x1="96" y1="50" x2="102" y2="46" stroke="#C7D2FE" stroke-width="2" stroke-linecap="round"/>
    <line x1="96" y1="56" x2="102" y2="56" stroke="#C7D2FE" stroke-width="2" stroke-linecap="round"/>
    <line x1="96" y1="62" x2="102" y2="66" stroke="#C7D2FE" stroke-width="2" stroke-linecap="round"/>

    <path d="M54 36 L64 44 L74 36" stroke="#C7D2FE" stroke-width="2.5" stroke-linecap="round" stroke-linejoin="round" fill="none"/>

    <path d="M40 96 L28 110 L44 108 L64 114 L84 108 L100 110 L88 96" stroke="#A5B4FC" stroke-width="2" stroke-linejoin="round" fill="none" opacity="0.4"/>
    <circle cx="44" cy="106" r="2" fill="#C7D2FE" opacity="0.4"/>
    <circle cx="84" cy="106" r="2" fill="#C7D2FE" opacity="0.4"/>
  </g>

  <!-- VIGIL text -->
  <text x="140" y="82" font-family="Inter, -apple-system, BlinkMacSystemFont, 'Segoe UI', Helvetica, Arial, sans-serif" font-size="64" font-weight="800" fill="#F1F5F9" letter-spacing="3">VIGIL</text>

  <!-- Tagline -->
  <text x="142" y="110" font-family="Inter, -apple-system, BlinkMacSystemFont, 'Segoe UI', Helvetica, Arial, sans-serif" font-size="14" font-weight="500" fill="#94A3B8" letter-spacing="4">THE TESTING FRAMEWORK FOR AI AGENTS</text>
</svg>
